<svg width="64" height="64" viewBox="0 0 64 64" fill="none" xmlns="http://www.w3.org/2000/svg">
<path d="M57.44 48.76C56.3029 44.0384 53.8689 39.7286 50.4128 36.3166C46.9567 32.9046 42.6159 30.5263 37.8801 29.45C40.7406 28.1122 43.0594 25.839 44.4538 23.0055C45.8481 20.1721 46.2346 16.9479 45.5494 13.8653C44.8641 10.7826 43.1482 8.02571 40.6848 6.04979C38.2215 4.07386 35.158 2.99701 32.0001 2.99701C28.8421 2.99701 25.7786 4.07386 23.3153 6.04979C20.8519 8.02571 19.136 10.7826 18.4507 13.8653C17.7655 16.9479 18.152 20.1721 19.5463 23.0055C20.9407 25.839 23.2595 28.1122 26.1201 29.45C21.4053 30.5229 17.0819 32.8858 13.633 36.2747C10.1841 39.6636 7.74556 43.9449 6.59005 48.64C6.51973 48.8301 6.50885 49.0371 6.55886 49.2336C6.60886 49.43 6.71739 49.6066 6.87005 49.74C10.0357 53.2881 13.9165 56.1259 18.2574 58.0668C22.5982 60.0077 27.3008 61.0077 32.0558 61.0011C36.8108 60.9945 41.5105 59.9814 45.846 58.0284C50.1814 56.0755 54.0543 53.2269 57.21 49.67C57.3199 49.5487 57.3983 49.4023 57.4384 49.2437C57.4786 49.085 57.4791 48.9189 57.44 48.76ZM35.0001 42.65L32.0001 46.71L29.0001 42.65L29.7301 30.87C30.4501 30.81 31.1801 30.77 31.9101 30.77H32.0301C32.7601 30.77 33.4901 30.77 34.2101 30.87L35.0001 42.65ZM20.1201 16.89C20.1181 14.5401 20.8125 12.2423 22.1156 10.2868C23.4187 8.33126 25.272 6.80572 27.4415 5.90281C29.6111 4.9999 31.9995 4.76011 34.3052 5.21373C36.6109 5.66734 38.7305 6.794 40.3963 8.45145C42.0622 10.1089 43.1995 12.2228 43.6647 14.5262C44.1299 16.8296 43.9022 19.2192 43.0102 21.3932C42.1182 23.5673 40.6021 25.4283 38.6531 26.7412C36.7042 28.0541 34.4099 28.7601 32.0601 28.77H31.9401C28.8005 28.7515 25.7957 27.492 23.5813 25.2664C21.3669 23.0407 20.1226 20.0296 20.1201 16.89V16.89ZM32.0001 59C27.6061 59.0013 23.26 58.088 19.2383 56.3181C15.2166 54.5483 11.6073 51.9607 8.64005 48.72C9.81348 44.2732 12.2358 40.2554 15.6206 37.1417C19.0053 34.0281 23.2109 31.9489 27.7401 31.15L27.0001 42.88C26.9835 43.1155 27.0508 43.3493 27.1901 43.54L31.1901 49C31.2828 49.1281 31.4045 49.2323 31.5453 49.3042C31.6861 49.3761 31.842 49.4136 32.0001 49.4136C32.1581 49.4136 32.314 49.3761 32.4548 49.3042C32.5956 49.2323 32.7173 49.1281 32.8101 49L36.8101 43.54C36.9493 43.3493 37.0166 43.1155 37.0001 42.88L36.2701 31.15C40.8009 31.9485 45.008 34.0288 48.3931 37.1445C51.7782 40.2602 54.1994 44.2807 55.37 48.73C52.3977 51.9663 48.7858 54.5501 44.763 56.318C40.7402 58.0858 36.3942 58.9991 32.0001 59Z" fill="#ff4747" id="id_101"></path>
</svg>