<svg xmlns="http://www.w3.org/2000/svg" viewBox="0 0 64 64"><defs><style>.cls-1{fill:red;}</style></defs><title>1</title><g id="Layer_86" data-name="Layer 86"><path class="cls-1" d="M45.15,60.06H11.4A7.17,7.17,0,0,1,4.24,52.9V19.15A7.17,7.17,0,0,1,11.4,12H30.25a2,2,0,0,1,0,4H11.4a3.16,3.16,0,0,0-3.16,3.16V52.9a3.16,3.16,0,0,0,3.16,3.16H45.15a3.16,3.16,0,0,0,3.16-3.16V34.05a2,2,0,0,1,4,0V52.9A7.17,7.17,0,0,1,45.15,60.06Z" id="id_101"></path><path d="M58,6.27h0l-1-.94a5.34,5.34,0,0,0-7.55.37,5.27,5.27,0,0,0-.81,1.23,2,2,0,0,0-.87-.16,2,2,0,0,0-1.38.65L24.91,31.08a2,2,0,0,0-.48,1l-2,9.83A2,2,0,0,0,25,44.17l9.59-2.9a2,2,0,0,0,.9-.57L57,17a2,2,0,0,0,.27-2.29A5.27,5.27,0,0,0,58,6.27ZM52.39,8.38a1.34,1.34,0,0,1,.93-.44h.07a1.34,1.34,0,0,1,.9.35l1,.94a1.34,1.34,0,0,1-.84,2.33,1.38,1.38,0,0,1-1-.34l-.37-.33-.67-.61A1.34,1.34,0,0,1,52.39,8.38ZM32.91,37.6,27,39.37l1.2-6L48,11.59,50.61,14l.21.19h0l1.82,1.65Z" id="id_102" style="fill: rgb(255, 255, 255);"></path></g></svg>