<svg width="64" height="64" viewBox="0 0 64 64" fill="none" xmlns="http://www.w3.org/2000/svg">
<path d="M44.38 3.79004H3.96V44.21H44.38V3.79004Z" fill="#ff7873" id="id_101"></path>
<path d="M60 17.78H53.5V11.28C53.5 11.083 53.4612 10.888 53.3858 10.706C53.3104 10.524 53.1999 10.3586 53.0607 10.2193C52.9214 10.0801 52.756 9.96956 52.574 9.89418C52.392 9.8188 52.197 9.78 52 9.78H46.21V4C46.21 3.60218 46.052 3.22064 45.7707 2.93934C45.4894 2.65804 45.1078 2.5 44.71 2.5H4C3.60218 2.5 3.22064 2.65804 2.93934 2.93934C2.65804 3.22064 2.5 3.60218 2.5 4V44.71C2.5 45.1078 2.65804 45.4894 2.93934 45.7707C3.22064 46.052 3.60218 46.21 4 46.21H9.79V52C9.79 52.3978 9.94804 52.7794 10.2293 53.0607C10.5106 53.342 10.8922 53.5 11.29 53.5H17.79V60C17.79 60.3978 17.948 60.7794 18.2293 61.0607C18.5106 61.342 18.8922 61.5 19.29 61.5H60C60.3978 61.5 60.7794 61.342 61.0607 61.0607C61.342 60.7794 61.5 60.3978 61.5 60V19.28C61.5 18.8822 61.342 18.5006 61.0607 18.2193C60.7794 17.938 60.3978 17.78 60 17.78ZM5.5 5.5H43.21V43.21H5.5V5.5ZM12.79 46.21H44.71C45.1078 46.21 45.4894 46.052 45.7707 45.7707C46.052 45.4894 46.21 45.1078 46.21 44.71V12.78H50.5V50.5H12.79V46.21ZM58.5 58.5H20.79V53.5H52C52.3978 53.5 52.7794 53.342 53.0607 53.0607C53.342 52.7794 53.5 52.3978 53.5 52V20.78H58.5V58.5Z" fill="#e60800" id="id_102"></path>
</svg>