<?xml version="1.0" encoding="UTF-8" standalone="no"?> <svg width="64" height="64" viewBox="0 0 64 64" fill="none" xmlns="http://www.w3.org/2000/svg">
<path d="M24.72 8.57007H11.15C9.5705 8.57007 8.29004 9.85053 8.29004 11.4301V25.0001C8.29004 26.5796 9.5705 27.8601 11.15 27.8601H24.72C26.2996 27.8601 27.58 26.5796 27.58 25.0001V11.4301C27.58 9.85053 26.2996 8.57007 24.72 8.57007Z" fill="#78B9EB"/>
<path d="M52.5699 8.57007H38.9999C37.4204 8.57007 36.1399 9.85053 36.1399 11.4301V25.0001C36.1399 26.5796 37.4204 27.8601 38.9999 27.8601H52.5699C54.1494 27.8601 55.4299 26.5796 55.4299 25.0001V11.4301C55.4299 9.85053 54.1494 8.57007 52.5699 8.57007Z" fill="#78B9EB"/>
<path d="M24.72 36.4299H11.15C9.5705 36.4299 8.29004 37.7104 8.29004 39.2899V52.8599C8.29004 54.4395 9.5705 55.7199 11.15 55.7199H24.72C26.2996 55.7199 27.58 54.4395 27.58 52.8599V39.2899C27.58 37.7104 26.2996 36.4299 24.72 36.4299Z" fill="#78B9EB"/>
<path d="M52.5699 36.4299H38.9999C37.4204 36.4299 36.1399 37.7104 36.1399 39.2899V52.8599C36.1399 54.4395 37.4204 55.7199 38.9999 55.7199H52.5699C54.1494 55.7199 55.4299 54.4395 55.4299 52.8599V39.2899C55.4299 37.7104 54.1494 36.4299 52.5699 36.4299Z" fill="#78B9EB"/>
<path d="M25 6.75H11C9.87364 6.75264 8.79417 7.20126 7.99771 7.99771C7.20126 8.79417 6.75264 9.87364 6.75 11V25C6.75264 26.1264 7.20126 27.2058 7.99771 28.0023C8.79417 28.7987 9.87364 29.2474 11 29.25H25C26.1264 29.2474 27.2058 28.7987 28.0023 28.0023C28.7987 27.2058 29.2474 26.1264 29.25 25V11C29.2474 9.87364 28.7987 8.79417 28.0023 7.99771C27.2058 7.20126 26.1264 6.75264 25 6.75V6.75ZM26.75 25C26.7474 25.4633 26.5622 25.9069 26.2345 26.2345C25.9069 26.5622 25.4633 26.7474 25 26.75H11C10.5367 26.7474 10.0931 26.5622 9.76546 26.2345C9.43784 25.9069 9.25263 25.4633 9.25 25V11C9.25263 10.5367 9.43784 10.0931 9.76546 9.76546C10.0931 9.43784 10.5367 9.25263 11 9.25H25C25.4633 9.25263 25.9069 9.43784 26.2345 9.76546C26.5622 10.0931 26.7474 10.5367 26.75 11V25Z" fill="#006DF0"/>
<path d="M53 6.75H39C37.8736 6.75264 36.7942 7.20126 35.9977 7.99771C35.2013 8.79417 34.7526 9.87364 34.75 11V25C34.7526 26.1264 35.2013 27.2058 35.9977 28.0023C36.7942 28.7987 37.8736 29.2474 39 29.25H53C54.1264 29.2474 55.2058 28.7987 56.0023 28.0023C56.7987 27.2058 57.2474 26.1264 57.25 25V11C57.2474 9.87364 56.7987 8.79417 56.0023 7.99771C55.2058 7.20126 54.1264 6.75264 53 6.75V6.75ZM54.75 25C54.7474 25.4633 54.5622 25.9069 54.2345 26.2345C53.9069 26.5622 53.4633 26.7474 53 26.75H39C38.5367 26.7474 38.0931 26.5622 37.7655 26.2345C37.4378 25.9069 37.2526 25.4633 37.25 25V11C37.2526 10.5367 37.4378 10.0931 37.7655 9.76546C38.0931 9.43784 38.5367 9.25263 39 9.25H53C53.4633 9.25263 53.9069 9.43784 54.2345 9.76546C54.5622 10.0931 54.7474 10.5367 54.75 11V25Z" fill="#006DF0"/>
<path d="M25 34.75H11C9.87364 34.7526 8.79417 35.2013 7.99771 35.9977C7.20126 36.7942 6.75264 37.8736 6.75 39V53C6.75264 54.1264 7.20126 55.2058 7.99771 56.0023C8.79417 56.7987 9.87364 57.2474 11 57.25H25C26.1264 57.2474 27.2058 56.7987 28.0023 56.0023C28.7987 55.2058 29.2474 54.1264 29.25 53V39C29.2474 37.8736 28.7987 36.7942 28.0023 35.9977C27.2058 35.2013 26.1264 34.7526 25 34.75ZM26.75 53C26.7474 53.4633 26.5622 53.9069 26.2345 54.2345C25.9069 54.5622 25.4633 54.7474 25 54.75H11C10.5367 54.7474 10.0931 54.5622 9.76546 54.2345C9.43784 53.9069 9.25263 53.4633 9.25 53V39C9.25263 38.5367 9.43784 38.0931 9.76546 37.7655C10.0931 37.4378 10.5367 37.2526 11 37.25H25C25.4633 37.2526 25.9069 37.4378 26.2345 37.7655C26.5622 38.0931 26.7474 38.5367 26.75 39V53Z" fill="#006DF0"/>
<path d="M53 34.75H39C37.8736 34.7526 36.7942 35.2013 35.9977 35.9977C35.2013 36.7942 34.7526 37.8736 34.75 39V53C34.7526 54.1264 35.2013 55.2058 35.9977 56.0023C36.7942 56.7987 37.8736 57.2474 39 57.25H53C54.1264 57.2474 55.2058 56.7987 56.0023 56.0023C56.7987 55.2058 57.2474 54.1264 57.25 53V39C57.2474 37.8736 56.7987 36.7942 56.0023 35.9977C55.2058 35.2013 54.1264 34.7526 53 34.75V34.75ZM54.75 53C54.7474 53.4633 54.5622 53.9069 54.2345 54.2345C53.9069 54.5622 53.4633 54.7474 53 54.75H39C38.5367 54.7474 38.0931 54.5622 37.7655 54.2345C37.4378 53.9069 37.2526 53.4633 37.25 53V39C37.2526 38.5367 37.4378 38.0931 37.7655 37.7655C38.0931 37.4378 38.5367 37.2526 39 37.25H53C53.4633 37.2526 53.9069 37.4378 54.2345 37.7655C54.5622 38.0931 54.7474 38.5367 54.75 39V53Z" fill="#006DF0"/>
</svg>
